<svg xmlns="http://www.w3.org/2000/svg" width="1024" height="500" viewBox="0 0 1024 500">
  <rect width="1024" height="500" fill="#4F46E5"/>
  <rect x="620" width="404" height="500" fill="#0EA5E9"/>
  <path d="M0 500L1024 260V500Z" fill="#22C55E"/>
  <circle cx="50" cy="80" r="210" fill="#6366F1"/>
  <circle cx="1000" cy="470" r="160" fill="#16A34A"/>
  <text x="70" y="130" font-family="Arial, sans-serif" font-size="74" font-weight="700" fill="#FFFFFF">Quiz Vocab</text>
  <text x="74" y="194" font-family="Arial, sans-serif" font-size="31" fill="#E0F2FE">Học từ vựng tiếng Anh bằng quiz</text>
  <text x="74" y="246" font-family="Arial, sans-serif" font-size="24" font-weight="700" fill="#FFFFFF">16 chủ đề  •  160 từ  •  5 dạng câu hỏi</text>
  <g font-family="Arial, sans-serif" font-size="23" font-weight="700" fill="#0F172A">
    <rect x="74" y="292" width="104" height="52" rx="26" fill="#FFFFFF"/><text x="93" y="325">Offline</text>
    <rect x="184" y="292" width="102" height="52" rx="26" fill="#FFFFFF"/><text x="203" y="325">Từ sai</text>
    <rect x="292" y="292" width="116" height="52" rx="26" fill="#FFFFFF"/><text x="311" y="325">Phát âm</text>
    <rect x="414" y="292" width="138" height="52" rx="26" fill="#FFFFFF"/><text x="433" y="325">Dark mode</text>
  </g>
  <rect x="650" y="38" width="294" height="424" rx="42" fill="#0F172A"/>
  <rect x="665" y="54" width="264" height="392" rx="30" fill="#F8FAFC"/>
  <rect x="686" y="88" width="222" height="80" rx="24" fill="#4F46E5"/>
  <text x="708" y="126" font-family="Arial, sans-serif" font-size="24" font-weight="700" fill="#FFFFFF">Quiz Vocab</text>
  <text x="708" y="154" font-family="Arial, sans-serif" font-size="15" fill="#E0E7FF">Luyện 20 câu mỗi lượt</text>
  <g font-family="Arial, sans-serif">
    <rect x="686" y="192" width="222" height="54" rx="18" fill="#FFFFFF" stroke="#CBD5E1" stroke-width="2"/>
    <circle cx="725" cy="219" r="13" fill="#4F46E5"/><text x="742" y="214" font-size="16" font-weight="700" fill="#0F172A">Chủ đề</text><text x="742" y="235" font-size="14" fill="#475569">16</text>
    <rect x="686" y="264" width="222" height="54" rx="18" fill="#FFFFFF" stroke="#CBD5E1" stroke-width="2"/>
    <circle cx="725" cy="291" r="13" fill="#22C55E"/><text x="742" y="286" font-size="16" font-weight="700" fill="#0F172A">Từ vựng</text><text x="742" y="307" font-size="14" fill="#475569">160</text>
    <rect x="686" y="336" width="222" height="54" rx="18" fill="#FFFFFF" stroke="#CBD5E1" stroke-width="2"/>
    <circle cx="725" cy="363" r="13" fill="#F59E0B"/><text x="742" y="358" font-size="16" font-weight="700" fill="#0F172A">Câu hỏi</text><text x="742" y="379" font-size="14" fill="#475569">5 kiểu</text>
  </g>
  <rect x="708" y="422" width="178" height="40" rx="20" fill="#22C55E"/>
  <text x="797" y="448" text-anchor="middle" font-family="Arial, sans-serif" font-size="16" font-weight="700" fill="#FFFFFF">Bắt đầu học</text>
</svg>
